<?xml version="1.0" encoding="UTF-8" standalone="no"?>
<!-- Generator: Adobe Illustrator 18.1.1, SVG Export Plug-In . SVG Version: 6.00 Build 0)  -->

<svg
   xmlns:dc="http://purl.org/dc/elements/1.1/"
   xmlns:cc="http://creativecommons.org/ns#"
   xmlns:rdf="http://www.w3.org/1999/02/22-rdf-syntax-ns#"
   xmlns:svg="http://www.w3.org/2000/svg"
   xmlns="http://www.w3.org/2000/svg"
   xmlns:sodipodi="http://sodipodi.sourceforge.net/DTD/sodipodi-0.dtd"
   xmlns:inkscape="http://www.inkscape.org/namespaces/inkscape"
   version="1.1"
   id="Capa_1"
   x="0px"
   y="0px"
   viewBox="0 0 100 100"
   xml:space="preserve"
   sodipodi:docname="database.svg"
   inkscape:export-filename="/home/leviathan/QtProcessPlanner/images/database.png"
   inkscape:export-xdpi="48.18"
   inkscape:export-ydpi="48.18"
   inkscape:version="0.92.3 (2405546, 2018-03-11)"
   width="100"
   height="100"><metadata
   id="metadata48"><rdf:RDF><cc:Work
       rdf:about=""><dc:format>image/svg+xml</dc:format><dc:type
         rdf:resource="http://purl.org/dc/dcmitype/StillImage" /><dc:title></dc:title></cc:Work></rdf:RDF></metadata><defs
   id="defs46" /><sodipodi:namedview
   pagecolor="#ffffff"
   bordercolor="#666666"
   borderopacity="1"
   objecttolerance="10"
   gridtolerance="10"
   guidetolerance="10"
   inkscape:pageopacity="0"
   inkscape:pageshadow="2"
   inkscape:window-width="1920"
   inkscape:window-height="1053"
   id="namedview44"
   showgrid="false"
   inkscape:zoom="7.375"
   inkscape:cx="16"
   inkscape:cy="48.542373"
   inkscape:window-x="0"
   inkscape:window-y="0"
   inkscape:window-maximized="1"
   inkscape:current-layer="Capa_1" />
<g
   id="g11"
   transform="matrix(3,0,0,3,1.9661017,2.4067797)">
	<g
   id="data">
		<path
   style="fill:#010002"
   d="M 16,0 C 9.256,0 2,2.033 2,6.5 v 19 c 0,4.465 7.256,6.5 14,6.5 6.743,0 14,-2.035 14,-6.5 V 6.5 C 30,2.033 22.742,0 16,0 Z M 28,25.5 C 28,27.984 22.627,30 16,30 9.372,30 4,27.984 4,25.5 V 21.764 C 6.066,23.893 11.05,25 16,25 c 4.95,0 9.934,-1.107 12,-3.236 z m 0,-6 H 27.996 C 27.996,19.51 28,19.521 28,19.531 28,22 22.627,24 16,24 9.373,24 4,22 4,19.531 4,19.521 4.004,19.51 4.004,19.5 H 4 V 15.764 C 6.066,17.893 11.05,19 16,19 c 4.95,0 9.934,-1.107 12,-3.236 z m 0,-6 H 27.996 C 27.996,13.51 28,13.521 28,13.531 28,16 22.627,18 16,18 9.373,18 4,16 4,13.531 4,13.521 4.004,13.51 4.004,13.5 H 4 V 10.064 C 6.621,12.061 11.425,13 16,13 c 4.575,0 9.379,-0.939 12,-2.936 z M 16,11 C 9.372,11 4,8.984 4,6.5 4,4.014 9.372,2 16,2 22.627,2 28,4.014 28,6.5 28,8.984 22.627,11 16,11 Z"
   id="path2"
   inkscape:connector-curvature="0" />
		<circle
   style="fill:#010002"
   cx="25"
   cy="26"
   r="1"
   id="circle4" />
		<circle
   style="fill:#010002"
   cx="25"
   cy="20"
   r="1"
   id="circle6" />
		<circle
   style="fill:#010002"
   cx="25"
   cy="14"
   r="1"
   id="circle8" />
	</g>
</g>
<g
   id="g13"
   transform="translate(33.966102,34.40678)">
</g>
<g
   id="g15"
   transform="translate(33.966102,34.40678)">
</g>
<g
   id="g17"
   transform="translate(33.966102,34.40678)">
</g>
<g
   id="g19"
   transform="translate(33.966102,34.40678)">
</g>
<g
   id="g21"
   transform="translate(33.966102,34.40678)">
</g>
<g
   id="g23"
   transform="translate(33.966102,34.40678)">
</g>
<g
   id="g25"
   transform="translate(33.966102,34.40678)">
</g>
<g
   id="g27"
   transform="translate(33.966102,34.40678)">
</g>
<g
   id="g29"
   transform="translate(33.966102,34.40678)">
</g>
<g
   id="g31"
   transform="translate(33.966102,34.40678)">
</g>
<g
   id="g33"
   transform="translate(33.966102,34.40678)">
</g>
<g
   id="g35"
   transform="translate(33.966102,34.40678)">
</g>
<g
   id="g37"
   transform="translate(33.966102,34.40678)">
</g>
<g
   id="g39"
   transform="translate(33.966102,34.40678)">
</g>
<g
   id="g41"
   transform="translate(33.966102,34.40678)">
</g>
</svg>